# xmcd
# 
# Track frame offsets:
#     150
#     21891
#     38431
#     53210
# 
# Disc length: 958
# 
# Revision: 1
# Processed by: cddbd v1.5.2PL0 Copyright (c) Steve Scherf et al.
# Submitted via: fre:ac v1.0.17
# 
DISCID=2603bc04
DTITLE=Bikinis and Icecream - The Experiment
DYEAR=2017
DGENRE=Pop-Punk
TTITLE0=Calling of the Edge
TTITLE1=Ghost
TTITLE2=Out of Time
TTITLE3=Universal
EXTD=Bikinis and Icecream © All rights reserved 
EXTT0=
EXTT1=
EXTT2=
EXTT3=
PLAYORDER=
